<svg width="35" height="36" viewBox="0 0 35 36" fill="none" xmlns="http://www.w3.org/2000/svg">
<path fill-rule="evenodd" clip-rule="evenodd" d="M27.7083 19.6342C27.7083 18.8292 28.3617 18.1759 29.1667 18.1759C29.9717 18.1759 30.625 18.8292 30.625 19.6342V27.7513C30.625 29.8426 28.9231 31.5444 26.8333 31.5444H8.16667C6.07687 31.5444 4.375 29.8426 4.375 27.7513V9.0861C4.375 6.99485 6.07687 5.29443 8.16667 5.29443H22.1185C22.9235 5.29443 23.5769 5.94631 23.5769 6.75277C23.5769 7.55777 22.9235 8.2111 22.1185 8.2111H8.16667C7.68396 8.2111 7.29167 8.60339 7.29167 9.0861V27.7513C7.29167 28.234 7.68396 28.6278 8.16667 28.6278H26.8333C27.316 28.6278 27.7083 28.234 27.7083 27.7513V19.6342ZM13.5765 16.8824C14.1598 16.3253 15.0815 16.3486 15.6386 16.9305L17.8334 19.2317L26.6607 10.1128C27.2192 9.53527 28.1423 9.51777 28.7227 10.0792C29.3017 10.6392 29.3163 11.5624 28.7563 12.1413L18.8732 22.3496C18.599 22.634 18.2213 22.7944 17.8261 22.7944H17.8203C17.4236 22.793 17.0444 22.6296 16.7703 22.3424L13.5284 18.9444C12.9713 18.3611 12.9946 17.438 13.5765 16.8824Z"/>
</svg>
