<svg width="230" height="464" viewBox="0 0 230 464" fill="none" xmlns="http://www.w3.org/2000/svg">
<path d="M-22.6883 3.28716C-21.2444 3.08197 -19.781 2.89303 -18.3159 2.722C-19.7794 2.91094 -21.2444 3.08197 -22.6883 3.28716Z" fill="#E3CF4B"/>
<path d="M201.577 98.7345C203.855 96.6105 204.125 93.0643 202.131 90.6294C150.255 27.56 70.8109 -5.62981 -10.3964 1.84826C-12.5453 2.04613 -14.6908 2.27982 -16.8346 2.53142C-14.8698 2.29631 -12.8838 2.09537 -10.8962 1.91234C75.7353 -6.08328 155.516 33.5045 201.577 98.7345Z" fill="url(#paint0_linear_918_6068)"/>
<path d="M-25.3952 3.69897C-84.783 12.7975 -138.121 42.883 -176.865 89.4665C-218.825 139.958 -238.629 203.759 -232.609 269.137C-229.241 305.702 -218.142 340.147 -199.596 371.523C-198.397 373.562 -196.15 374.619 -193.948 374.416C-193.106 374.338 -192.263 374.08 -191.476 373.61C-188.65 371.942 -187.721 368.299 -189.388 365.49C-207.035 335.639 -217.604 302.843 -220.808 268.05C-221.435 261.245 -221.749 254.502 -221.789 247.788C-231.765 128.274 -145.199 22.0992 -25.3952 3.69897Z" fill="url(#paint1_linear_918_6068)"/>
<path d="M-9.30812 13.6668C67.9777 6.54981 143.591 38.1421 192.964 98.1552C195.039 100.691 198.792 101.05 201.31 98.9758C201.411 98.8943 201.494 98.8144 201.577 98.7345C155.516 33.5045 75.7353 -6.08327 -10.8978 1.89443C-12.8855 2.07747 -14.8715 2.27841 -16.8363 2.51351C-17.3377 2.55968 -17.8179 2.64002 -18.3176 2.7041C-19.781 2.89303 -21.2461 3.06406 -22.6899 3.26926C-23.5982 3.40708 -24.4886 3.54324 -25.3969 3.68106C-145.199 22.0992 -231.765 128.274 -221.771 247.786C-222.471 127.815 -130.949 24.8682 -9.30812 13.6668Z" fill="url(#paint2_linear_918_6068)"/>
<path d="M150.919 79.6704C106.332 42.6025 49.9849 25.1096 -7.76451 30.4275C-65.5139 35.7454 -117.718 63.2344 -154.786 107.822C-156.054 109.347 -157.285 110.887 -158.498 112.425C-124.572 69.4095 -73.7504 39.8447 -14.8908 34.4246C98.9786 23.9388 199.771 107.75 210.255 221.601C220.739 335.453 136.93 436.263 23.0784 446.747C-90.7731 457.231 -191.598 373.459 -202.083 259.59C-206.833 208.018 -192.229 159.125 -164.275 120.09C-194.805 162.522 -208.869 213.948 -204.029 266.505C-198.713 324.236 -171.222 376.459 -126.635 413.526C-82.0479 450.594 -25.7013 468.087 32.0482 462.769C89.7976 457.451 142.002 429.962 179.07 385.375C216.138 340.788 233.631 284.442 228.313 226.692C222.995 168.943 195.506 116.738 150.919 79.6704Z" fill="url(#paint3_linear_918_6068)"/>
<path d="M23.0801 446.765C136.949 436.279 220.741 335.47 210.257 221.619C199.772 107.768 98.9803 23.9567 -14.8891 34.4425C-73.7488 39.8627 -124.57 69.4274 -158.496 112.443C-159.467 113.67 -160.435 114.915 -161.367 116.175C-162.123 117.183 -162.877 118.21 -163.613 119.235C-163.821 119.525 -164.047 119.817 -164.255 120.107C-192.227 159.143 -206.813 208.034 -202.064 259.606C-191.578 373.475 -90.7698 457.267 23.0817 446.782L23.0801 446.765ZM-5.92423 50.4115C102.251 40.4501 198.367 120.357 208.329 228.532C218.29 336.707 138.383 432.824 30.208 442.785C-77.9671 452.747 -174.084 372.84 -184.045 264.665C-194.007 156.49 -114.099 60.3729 -5.92423 50.4115Z" fill="url(#paint4_linear_918_6068)"/>
<path d="M158.822 182.166C149.088 160.2 134.354 140.609 115.326 124.79C82.8442 97.7856 41.7793 85.0434 -0.283824 88.9168C-3.79356 89.24 -6.50105 91.9995 -6.87645 95.3749C-3.28235 94.7911 0.359072 94.3294 4.02998 93.9914C71.4849 87.7797 132.7 124.996 158.822 182.166Z" fill="url(#paint5_linear_918_6068)"/>
<path d="M31.6947 394.414C-53.1836 402.23 -128.175 341.307 -135.813 258.363C-135.98 256.554 -136.109 254.76 -136.202 252.963C-136.345 252.976 -136.508 252.973 -136.669 252.988C-140.68 253.358 -143.639 256.917 -143.27 260.928C-139.396 302.991 -119.369 341.038 -86.887 368.042C-54.4048 395.047 -13.3399 407.789 28.7232 403.915C70.7863 400.042 108.834 380.015 135.838 347.533C162.842 315.05 175.584 273.986 171.711 231.922C171.681 231.6 171.651 231.278 171.622 230.955C178.722 313.552 116.269 386.626 31.7126 394.412L31.6947 394.414Z" fill="url(#paint6_linear_918_6068)"/>
<path d="M31.6947 394.414C116.251 386.627 178.721 313.534 171.604 230.957C169.922 213.866 165.573 197.436 158.804 182.168C132.68 124.98 71.467 87.7814 4.01208 93.993C0.341175 94.3311 -3.29862 94.8107 -6.89436 95.3766C-6.95728 95.87 -6.94858 96.3567 -6.90076 96.876C-6.53139 100.887 -2.97224 103.846 1.03888 103.477C79.8467 96.2196 149.876 154.439 157.133 233.247C164.39 312.055 106.171 382.084 27.363 389.341C-51.4448 396.598 -121.474 338.379 -128.731 259.571C-129.087 255.703 -132.386 252.828 -136.221 252.947C-136.128 254.744 -135.999 256.538 -135.833 258.347C-128.193 341.309 -53.2031 402.214 31.6752 394.398L31.6947 394.414Z" fill="url(#paint7_linear_918_6068)"/>
<defs>
<linearGradient id="paint0_linear_918_6068" x1="-228.385" y1="193.573" x2="228.866" y2="266.82" gradientUnits="userSpaceOnUse">
<stop stop-color="#D93A18"/>
<stop offset="1" stop-color="#F2AB00"/>
</linearGradient>
<linearGradient id="paint1_linear_918_6068" x1="-228.387" y1="193.585" x2="228.845" y2="266.828" gradientUnits="userSpaceOnUse">
<stop stop-color="#D93A18"/>
<stop offset="1" stop-color="#F2AB00"/>
</linearGradient>
<linearGradient id="paint2_linear_918_6068" x1="-228.388" y1="193.592" x2="228.843" y2="266.835" gradientUnits="userSpaceOnUse">
<stop stop-color="#F2AB00"/>
<stop offset="1" stop-color="#D93A18"/>
</linearGradient>
<linearGradient id="paint3_linear_918_6068" x1="-228.366" y1="193.576" x2="228.827" y2="266.814" gradientUnits="userSpaceOnUse">
<stop stop-color="#007B82"/>
<stop offset="1" stop-color="#17A0B2"/>
</linearGradient>
<linearGradient id="paint4_linear_918_6068" x1="-228.157" y1="244.036" x2="211.436" y2="203.535" gradientUnits="userSpaceOnUse">
<stop stop-color="#17A0B2"/>
<stop offset="1" stop-color="#007B82"/>
</linearGradient>
<linearGradient id="paint5_linear_918_6068" x1="-228.379" y1="193.535" x2="228.853" y2="266.778" gradientUnits="userSpaceOnUse">
<stop stop-color="#954089"/>
<stop offset="1" stop-color="#461D4B"/>
</linearGradient>
<linearGradient id="paint6_linear_918_6068" x1="-228.373" y1="193.499" x2="228.858" y2="266.742" gradientUnits="userSpaceOnUse">
<stop stop-color="#954089"/>
<stop offset="1" stop-color="#461D4B"/>
</linearGradient>
<linearGradient id="paint7_linear_918_6068" x1="-135.815" y1="258.345" x2="171.519" y2="230.044" gradientUnits="userSpaceOnUse">
<stop stop-color="#461D4B"/>
<stop offset="1" stop-color="#954089"/>
</linearGradient>
</defs>
</svg>
