<svg width="190" height="460" viewBox="0 0 190 460" fill="none" xmlns="http://www.w3.org/2000/svg">
<path d="M-207.17 380.148C-208.132 379.075 -209.092 377.977 -210.039 376.868C-209.079 377.966 -208.132 379.075 -207.17 380.148Z" fill="#E3CF4B"/>
<path d="M-253.236 142.491C-256.217 141.803 -259.246 143.56 -260.125 146.558C-282.766 224.406 -265.942 308.247 -215.113 370.844C-213.768 372.5 -212.396 374.134 -211.01 375.756C-212.284 374.272 -213.542 372.751 -214.786 371.219C-269.025 304.451 -280.837 216.763 -253.236 142.491Z" fill="url(#paint0_linear_1187_3656)"/>
<path d="M-205.344 382.143C-165.223 425.896 -111.39 452.962 -52.1978 458.823C11.9406 465.148 74.6798 445.829 124.467 404.396C152.313 381.223 174.176 352.875 189.44 320.118C190.435 317.994 190.056 315.557 188.678 313.859C188.151 313.211 187.477 312.662 186.661 312.276C183.748 310.884 180.277 312.153 178.915 315.091C164.393 346.259 143.577 373.25 117.081 395.3C111.899 399.612 106.595 403.633 101.163 407.413C9.58142 482.308 -124.371 470.38 -205.344 382.143Z" fill="url(#paint1_linear_1187_3656)"/>
<path d="M-206.113 363.354C-254.488 303.78 -270.498 223.98 -248.96 149.896C-248.044 146.774 -249.821 143.488 -252.893 142.576C-253.015 142.538 -253.126 142.514 -253.236 142.491C-280.837 216.763 -269.025 304.451 -214.799 371.23C-213.555 372.763 -212.297 374.283 -211.024 375.768C-210.71 376.154 -210.38 376.504 -210.052 376.879C-209.092 377.977 -208.146 379.086 -207.184 380.159C-206.571 380.829 -205.97 381.485 -205.357 382.155C-124.371 470.381 9.58142 482.308 101.152 407.399C4.08676 474.922 -129.975 457.118 -206.113 363.354Z" fill="url(#paint2_linear_1187_3656)"/>
<path d="M-240.803 194.781C-246.34 252.126 -229.496 308.217 -193.349 352.732C-157.202 397.247 -106.103 424.831 -49.4562 430.427C-47.5183 430.619 -45.5892 430.771 -43.6712 430.91C-97.3096 427.02 -149.333 401.731 -186.175 356.361C-257.448 268.587 -244.918 138.945 -158.216 66.7928C-71.514 -5.35976 56.5616 7.29462 127.824 95.0546C199.086 182.815 186.605 312.461 99.8896 384.625C60.6159 417.308 12.8522 432.585 -34.261 431.383C17.032 432.807 66.5552 415.673 106.579 382.366C150.544 345.779 177.812 294.034 183.349 236.689C188.886 179.344 172.042 123.253 135.895 78.7384C99.7485 34.2235 48.6487 6.6398 -7.99774 1.0429C-64.6442 -4.55401 -120.054 12.506 -164.033 49.1043C-208.011 85.7026 -235.266 137.436 -240.803 194.781Z" fill="url(#paint3_linear_1187_3656)"/>
<path d="M127.837 95.0433C56.564 7.26941 -71.5004 -5.37118 -158.202 66.7813C-244.905 138.934 -257.434 268.576 -186.161 356.349C-149.32 401.72 -97.2959 427.008 -43.6576 430.899C-42.126 431.012 -40.5808 431.114 -39.0443 431.177C-37.8084 431.235 -36.5589 431.283 -35.3205 431.316C-34.9703 431.325 -34.6088 431.348 -34.2586 431.358C12.8659 432.573 60.6184 417.283 99.8921 384.6C186.608 312.436 199.113 182.792 127.851 95.0319L127.837 95.0433ZM-178.131 340.067C-245.839 256.683 -233.904 133.064 -151.524 64.5085C-69.1452 -4.04662 52.9677 8.01862 120.677 91.4031C188.386 174.788 176.45 298.407 94.0704 366.962C11.6912 435.517 -110.422 423.452 -178.131 340.067Z" fill="url(#paint4_linear_1187_3656)"/>
<path d="M-161.903 131.088C-174.381 151.348 -182.175 174.396 -184.538 198.868C-188.571 240.644 -176.29 281.519 -149.962 313.942C-147.765 316.648 -144.031 317.334 -141.083 315.759C-143.537 313.13 -145.919 310.393 -148.217 307.564C-190.439 255.568 -193.945 184.468 -161.903 131.088Z" fill="url(#paint5_linear_1187_3656)"/>
<path d="M80.5656 117.173C133.693 182.6 125.535 278.256 62.3701 330.821C60.9928 331.967 59.6068 333.074 58.1982 334.154C58.2879 334.264 58.3752 334.4 58.4761 334.524C60.9867 337.616 65.5085 338.063 68.5631 335.521C100.596 308.864 120.464 271.165 124.497 229.389C128.531 187.613 116.249 146.738 89.9213 114.314C63.5931 81.891 26.3566 61.7836 -14.9108 57.7062C-56.1783 53.6289 -96.5572 66.0674 -128.59 92.7246C-128.835 92.9289 -129.081 93.1331 -129.326 93.3374C-66.1472 41.4082 27.6291 51.9814 80.5544 117.16L80.5656 117.173Z" fill="url(#paint6_linear_1187_3656)"/>
<path d="M80.5656 117.173C27.6403 51.9952 -66.1609 41.4196 -129.315 93.3512C-142.271 104.272 -153.22 117.015 -161.892 131.101C-193.947 184.493 -190.427 255.581 -148.206 307.578C-145.908 310.407 -143.513 313.132 -141.071 315.773C-140.636 315.549 -140.245 315.271 -139.85 314.942C-136.795 312.4 -136.353 307.822 -138.864 304.73C-188.191 243.983 -179.495 153.916 -119.48 103.972C-59.4649 54.0278 29.5048 62.8183 78.8322 123.566C128.16 184.313 119.463 274.38 59.4484 324.324C56.5028 326.775 55.9858 331.092 58.1959 334.179C59.6044 333.1 60.9904 331.992 62.3677 330.846C125.547 278.27 133.69 182.625 80.5632 117.198L80.5656 117.173Z" fill="url(#paint7_linear_1187_3656)"/>
<defs>
<linearGradient id="paint0_linear_1187_3656" x1="-270" y1="230" x2="190.02" y2="230" gradientUnits="userSpaceOnUse">
<stop stop-color="#D93A18"/>
<stop offset="1" stop-color="#F2AB00"/>
</linearGradient>
<linearGradient id="paint1_linear_1187_3656" x1="-270" y1="230.012" x2="190" y2="230.012" gradientUnits="userSpaceOnUse">
<stop stop-color="#D93A18"/>
<stop offset="1" stop-color="#F2AB00"/>
</linearGradient>
<linearGradient id="paint2_linear_1187_3656" x1="-270" y1="230.018" x2="190" y2="230.018" gradientUnits="userSpaceOnUse">
<stop stop-color="#F2AB00"/>
<stop offset="1" stop-color="#D93A18"/>
</linearGradient>
<linearGradient id="paint3_linear_1187_3656" x1="-269.981" y1="230" x2="189.981" y2="230" gradientUnits="userSpaceOnUse">
<stop stop-color="#007B82"/>
<stop offset="1" stop-color="#17A0B2"/>
</linearGradient>
<linearGradient id="paint4_linear_1187_3656" x1="-261.847" y1="279.471" x2="162.988" y2="170.691" gradientUnits="userSpaceOnUse">
<stop stop-color="#17A0B2"/>
<stop offset="1" stop-color="#007B82"/>
</linearGradient>
<linearGradient id="paint5_linear_1187_3656" x1="-270" y1="229.962" x2="190" y2="229.962" gradientUnits="userSpaceOnUse">
<stop stop-color="#954089"/>
<stop offset="1" stop-color="#461D4B"/>
</linearGradient>
<linearGradient id="paint6_linear_1187_3656" x1="-270" y1="229.925" x2="190" y2="229.925" gradientUnits="userSpaceOnUse">
<stop stop-color="#954089"/>
<stop offset="1" stop-color="#461D4B"/>
</linearGradient>
<linearGradient id="paint7_linear_1187_3656" x1="62.3565" y1="330.833" x2="-132.835" y2="96.281" gradientUnits="userSpaceOnUse">
<stop stop-color="#461D4B"/>
<stop offset="1" stop-color="#954089"/>
</linearGradient>
</defs>
</svg>
