<svg width="35" height="36" viewBox="0 0 35 36" fill="none" xmlns="http://www.w3.org/2000/svg">
<g id=" Outline / attach-2">
<path id="Verctor" fill-rule="evenodd" clip-rule="evenodd" d="M13.553 31.5443C11.138 31.5443 8.84261 30.573 7.08969 28.8099C3.60719 25.3055 3.46427 19.7493 6.77031 16.4228L17.5416 5.5874C18.663 4.45865 20.1768 3.83594 21.8028 3.83594C23.5426 3.83594 25.1964 4.53448 26.4578 5.80323C28.9676 8.3276 29.0639 12.3395 26.6707 14.7457L15.8864 25.5797C15.1878 26.2841 14.2472 26.6705 13.238 26.6705C12.172 26.6705 11.1614 26.2447 10.3943 25.4732C8.85865 23.9259 8.81052 21.4599 10.2878 19.9724L20.2409 9.97552C20.8097 9.40385 21.7314 9.40094 22.303 9.96969C22.8732 10.5384 22.8761 11.4616 22.3074 12.0318L12.3557 22.0301C12.0057 22.383 12.0539 23.0057 12.4636 23.417C12.6766 23.6314 12.9595 23.7539 13.238 23.7539C13.3984 23.7539 13.6289 23.7145 13.8184 23.5234L24.6028 12.6895C25.8672 11.4164 25.7724 9.25073 24.3899 7.85948C23.0672 6.52948 20.8228 6.42448 19.6095 7.64365L8.83823 18.4791C6.65948 20.6709 6.8024 24.3839 9.15906 26.7536C10.3593 27.9626 11.9197 28.6276 13.553 28.6276C15.0128 28.6276 16.3661 28.0764 17.3607 27.0759L28.1334 16.2405C28.7007 15.6703 29.6239 15.6659 30.1955 16.2347C30.7657 16.8034 30.7686 17.7251 30.2014 18.2968L19.4286 29.1322C17.8828 30.6868 15.7959 31.5443 13.553 31.5443Z" fill="#006FBB"/>
</g>
</svg>
