<svg width="35" height="36" viewBox="0 0 35 36" fill="none" xmlns="http://www.w3.org/2000/svg">
<g id=" Outline / close-circle">
<path id="Union" fill-rule="evenodd" clip-rule="evenodd" d="M21.4478 13.9712C20.8776 13.401 19.9559 13.401 19.3857 13.9712L17.5001 15.8568L15.6145 13.9712C15.0442 13.401 14.1226 13.401 13.5524 13.9712C12.9822 14.5414 12.9822 15.4631 13.5524 16.0333L15.438 17.9189L13.5524 19.8045C12.9822 20.3747 12.9822 21.2964 13.5524 21.8666C13.8367 22.151 14.2101 22.2939 14.5834 22.2939C14.9567 22.2939 15.3301 22.151 15.6145 21.8666L17.5001 19.981L19.3857 21.8666C19.6701 22.151 20.0434 22.2939 20.4167 22.2939C20.7901 22.2939 21.1634 22.151 21.4478 21.8666C22.018 21.2964 22.018 20.3747 21.4478 19.8045L19.5622 17.9189L21.4478 16.0333C22.018 15.4631 22.018 14.5414 21.4478 13.9712ZM17.5001 29.5856C11.0674 29.5856 5.83341 24.3516 5.83341 17.9189C5.83341 11.4862 11.0674 6.25224 17.5001 6.25224C23.9328 6.25224 29.1667 11.4862 29.1667 17.9189C29.1667 24.3516 23.9328 29.5856 17.5001 29.5856ZM17.5001 3.33557C9.45883 3.33557 2.91675 9.87765 2.91675 17.9189C2.91675 25.9602 9.45883 32.5022 17.5001 32.5022C25.5413 32.5022 32.0834 25.9602 32.0834 17.9189C32.0834 9.87765 25.5413 3.33557 17.5001 3.33557Z" fill="#F26640"/>
</g>
</svg>
