<svg width="90" height="90" viewBox="0 0 90 90" fill="none" xmlns="http://www.w3.org/2000/svg">
<path fill-rule="evenodd" clip-rule="evenodd" d="M2.55458 2.55457C5.96067 -0.851524 11.483 -0.851524 14.8891 2.55457L45 32.6654L75.1109 2.55457C78.517 -0.851522 84.0393 -0.851521 87.4454 2.55458C90.8515 5.96067 90.8515 11.483 87.4454 14.8891L57.3346 45L87.4454 75.1109C90.8515 78.517 90.8515 84.0393 87.4454 87.4454C84.0393 90.8515 78.517 90.8515 75.1109 87.4454L45 57.3346L14.8891 87.4454C11.483 90.8515 5.96067 90.8515 2.55457 87.4454C-0.851525 84.0393 -0.851524 78.5169 2.55457 75.1108L32.6654 45L2.55458 14.8891C-0.851522 11.483 -0.851522 5.96067 2.55458 2.55457Z" fill="#FF774C"/>
</svg>
