<svg width="603" height="335" viewBox="0 0 603 335" fill="none" xmlns="http://www.w3.org/2000/svg">
<path d="M497.999 202.454C497.999 202.454 498.805 247.373 486.424 280.756C474.043 314.139 434.814 348.404 319.488 329.693C204.161 310.989 45.1825 246.134 0 303.331C0 303.331 88.9007 157.738 107.783 129.654C126.665 101.57 157.063 81.9632 243.922 98.6372C330.781 115.318 490.1 155.477 522.118 116.732L498.006 202.461L497.999 202.454Z" fill="#1C59BA"/>
<path d="M592.217 83.8885L486.431 280.756C486.431 280.756 492.112 256.081 450.553 209.027C409.002 161.973 405.94 142.149 420.54 123.06C435.14 103.971 491.72 42.9805 491.72 42.9805L592.217 83.8885Z" fill="#1E4799"/>
<g style="mix-blend-mode:multiply" opacity="0.6">
<path d="M592.217 83.8885L486.431 280.756C486.431 280.756 492.112 256.081 450.553 209.027C409.002 161.973 405.94 142.149 420.54 123.06C435.14 103.971 491.72 42.9805 491.72 42.9805L592.217 83.8885Z" fill="#A5A5A5"/>
</g>
<path d="M705 -14.972V220.851C665.498 197.009 611.196 165.838 560.814 142.325C555.992 140.078 551.199 137.894 546.458 135.794C450.457 93.262 420.119 124.314 419.557 124.895C419.579 124.846 419.926 124.209 420.533 123.082C420.533 123.082 420.535 123.075 420.54 123.061C427.818 109.53 473.119 25.32 485.345 2.654C488.451 -3.1 491.202 -9.239 495.174 -15H704.911C704.911 -15 704.971 -14.986 705 -14.972Z" fill="#1E4799"/>
<path d="M287.086 276.229L289.955 284.762L299.178 284.902L292.551 289.487L294.186 298.622L286.775 293.33L279.15 298.237L281.139 289.298L274.749 284.475L283.957 284.622L287.086 276.229Z" fill="#FEC442"/>
<path d="M289.763 128.879L292.633 137.412L301.863 137.552L295.229 142.13L296.863 151.265L289.452 145.98L281.834 150.887L283.816 141.948L277.426 137.125L286.642 137.272L289.763 128.879Z" fill="#FEC442"/>
<path d="M327.091 138.959L329.968 147.492L339.191 147.639L332.557 152.217L334.191 161.352L326.78 156.067L319.162 160.974L321.145 152.035L314.754 147.212L323.97 147.359L327.091 138.959Z" fill="#FEC442"/>
<path d="M250.283 137.713L253.152 146.246L262.375 146.386L255.748 150.971L257.376 160.099L249.965 154.814L242.347 159.721L244.336 150.782L237.939 145.959L247.154 146.106L250.283 137.713Z" fill="#FEC442"/>
<path d="M324.769 266.885L327.638 275.418L336.861 275.558L330.235 280.143L331.862 289.278L324.458 283.993L316.833 288.893L318.822 279.961L312.425 275.131L321.64 275.285L324.769 266.885Z" fill="#FEC442"/>
<path d="M247.953 265.639L250.823 274.172L260.053 274.312L253.419 278.89L255.053 288.025L247.642 282.74L240.025 287.647L242.007 278.708L235.616 273.885L244.832 274.032L247.953 265.639Z" fill="#FEC442"/>
<path d="M221.054 165.055L223.923 173.581L233.146 173.728L226.519 178.306L228.146 187.441L220.743 182.156L213.118 187.063L215.107 178.124L208.717 173.301L217.925 173.448L221.054 165.055Z" fill="#FEC442"/>
<path d="M356.246 167.252L359.123 175.785L368.346 175.925L361.712 180.51L363.347 189.645L355.936 184.36L348.318 189.26L350.3 180.321L343.91 175.498L353.125 175.652L356.246 167.252Z" fill="#FEC442"/>
<path d="M219.715 238.598L222.584 247.131L231.815 247.271L225.18 251.856L226.815 260.991L219.404 255.706L211.779 260.606L213.768 251.674L207.378 246.844L216.586 246.998L219.715 238.598Z" fill="#FEC442"/>
<path d="M354.915 240.803L357.785 249.336L367.007 249.476L360.381 254.061L362.008 263.196L354.597 257.904L346.979 262.811L348.968 253.872L342.571 249.049L351.786 249.196L354.915 240.803Z" fill="#FEC442"/>
<path d="M211.468 201.406L214.338 209.939L223.561 210.079L216.934 214.664L218.561 223.799L211.15 218.507L203.532 223.414L205.522 214.475L199.124 209.652L208.34 209.799L211.468 201.406Z" fill="#FEC442"/>
<path d="M365.476 203.912L368.353 212.445L377.576 212.585L370.942 217.17L372.576 226.305L365.166 221.013L357.548 225.92L359.53 216.981L353.14 212.158L362.355 212.312L365.476 203.912Z" fill="#FEC442"/>
</svg>
