<svg width="101" height="68" viewBox="0 0 101 68" fill="none" xmlns="http://www.w3.org/2000/svg">
<path d="M91 0H10C4.47715 0 0 4.47715 0 10V57.3333C0 62.8562 4.47715 67.3333 10 67.3333H91C96.5229 67.3333 101 62.8562 101 57.3333V10C101 4.47715 96.5229 0 91 0Z" fill="#2765B2"/>
<path d="M50.5 7.47852L49.344 11.0362L51.1229 11.6141L50.5 7.47852Z" fill="#FFCC00"/>
<path d="M50.5 7.47852L51.656 11.0362L49.8771 11.6141L50.5 7.47852Z" fill="#FFCC00"/>
<path d="M54.0574 10.0625H50.3166V11.9329L54.0574 10.0625Z" fill="#FFCC00"/>
<path d="M54.0574 10.0625L51.031 12.2613L49.9317 10.7481L54.0574 10.0625Z" fill="#FFCC00"/>
<path d="M52.6987 14.2441L51.5428 10.6865L49.764 11.2645L52.6987 14.2441Z" fill="#FFCC00"/>
<path d="M52.6987 14.2441L49.6724 12.0454L50.7718 10.5322L52.6987 14.2441Z" fill="#FFCC00"/>
<path d="M46.9421 10.0625H50.6829V11.9329L46.9421 10.0625Z" fill="#FFCC00"/>
<path d="M46.9421 10.0625L49.9685 12.2613L51.0678 10.7481L46.9421 10.0625Z" fill="#FFCC00"/>
<path d="M48.301 14.2441L49.457 10.6865L51.2358 11.2645L48.301 14.2441Z" fill="#FFCC00"/>
<path d="M48.301 14.2441L51.3273 12.0454L50.228 10.5322L48.301 14.2441Z" fill="#FFCC00"/>
<path d="M50.5 52.3691L49.344 55.9268L51.1229 56.5048L50.5 52.3691Z" fill="#FFCC00"/>
<path d="M50.5 52.3691L51.656 55.9268L49.8771 56.5048L50.5 52.3691Z" fill="#FFCC00"/>
<path d="M54.0579 54.9512H50.3171V56.8215L54.0579 54.9512Z" fill="#FFCC00"/>
<path d="M54.0579 54.9512L51.0315 57.1499L49.9322 55.6368L54.0579 54.9512Z" fill="#FFCC00"/>
<path d="M52.6985 59.1348L51.5425 55.5771L49.7637 56.1551L52.6985 59.1348Z" fill="#FFCC00"/>
<path d="M52.6985 59.1348L49.6722 56.936L50.7715 55.4229L52.6985 59.1348Z" fill="#FFCC00"/>
<path d="M46.9421 54.9512H50.6829V56.8215L46.9421 54.9512Z" fill="#FFCC00"/>
<path d="M46.9421 54.9512L49.9685 57.1499L51.0678 55.6368L46.9421 54.9512Z" fill="#FFCC00"/>
<path d="M48.301 59.1348L49.457 55.5771L51.2358 56.1551L48.301 59.1348Z" fill="#FFCC00"/>
<path d="M48.301 59.1348L51.3273 56.936L50.228 55.4229L48.301 59.1348Z" fill="#FFCC00"/>
<path d="M28.0554 29.9277L26.8995 33.4854L28.6783 34.0634L28.0554 29.9277Z" fill="#FFCC00"/>
<path d="M28.0554 29.9277L29.2114 33.4854L27.4325 34.0634L28.0554 29.9277Z" fill="#FFCC00"/>
<path d="M31.6133 32.5098H27.8725V34.3801L31.6133 32.5098Z" fill="#FFCC00"/>
<path d="M31.6133 32.5098L28.587 34.7085L27.4876 33.1954L31.6133 32.5098Z" fill="#FFCC00"/>
<path d="M30.2542 36.6934L29.0982 33.1357L27.3194 33.7137L30.2542 36.6934Z" fill="#FFCC00"/>
<path d="M30.2542 36.6934L27.2278 34.4946L28.3272 32.9814L30.2542 36.6934Z" fill="#FFCC00"/>
<path d="M24.498 32.5098H28.2388V34.3801L24.498 32.5098Z" fill="#FFCC00"/>
<path d="M24.498 32.5098L27.5244 34.7085L28.6237 33.1954L24.498 32.5098Z" fill="#FFCC00"/>
<path d="M25.8572 36.6934L27.0131 33.1357L28.792 33.7137L25.8572 36.6934Z" fill="#FFCC00"/>
<path d="M25.8572 36.6934L28.8835 34.4946L27.7841 32.9814L25.8572 36.6934Z" fill="#FFCC00"/>
<path d="M37.0784 17.2578L40.1047 15.0591L39.0053 13.5459L37.0784 17.2578Z" fill="#FFCC00"/>
<path d="M37.0784 17.2578L38.2343 13.7002L40.0131 14.2781L37.0784 17.2578Z" fill="#FFCC00"/>
<path d="M35.72 13.0742L38.7463 15.273L39.8457 13.7598L35.72 13.0742Z" fill="#FFCC00"/>
<path d="M35.72 13.0742H39.4607V14.9446L35.72 13.0742Z" fill="#FFCC00"/>
<path d="M39.2773 10.4883L38.1214 14.0459L39.9002 14.6239L39.2773 10.4883Z" fill="#FFCC00"/>
<path d="M39.2773 10.4883L40.4333 14.0459L38.6545 14.6239L39.2773 10.4883Z" fill="#FFCC00"/>
<path d="M41.4763 17.2539L38.45 15.0552L39.5494 13.542L41.4763 17.2539Z" fill="#FFCC00"/>
<path d="M41.4763 17.2539L40.3204 13.6963L38.5415 14.2742L41.4763 17.2539Z" fill="#FFCC00"/>
<path d="M42.8352 13.0723L39.8089 15.271L38.7095 13.7579L42.8352 13.0723Z" fill="#FFCC00"/>
<path d="M42.8352 13.0723H39.0945V14.9426L42.8352 13.0723Z" fill="#FFCC00"/>
<path d="M33.2607 25.4688L32.1048 21.9111L30.326 22.4891L33.2607 25.4688Z" fill="#FFCC00"/>
<path d="M33.2607 25.4688L30.2344 23.27L31.3338 21.7568L33.2607 25.4688Z" fill="#FFCC00"/>
<path d="M28.8635 25.4707L31.8898 23.272L30.7905 21.7588L28.8635 25.4707Z" fill="#FFCC00"/>
<path d="M28.8635 25.4707L30.0195 21.913L31.7983 22.491L28.8635 25.4707Z" fill="#FFCC00"/>
<path d="M27.5044 21.2891L30.5307 23.4878L31.6301 21.9747L27.5044 21.2891Z" fill="#FFCC00"/>
<path d="M27.5044 21.2891H31.2451V23.1594L27.5044 21.2891Z" fill="#FFCC00"/>
<path d="M34.6201 21.2852L31.5938 23.4839L30.4944 21.9707L34.6201 21.2852Z" fill="#FFCC00"/>
<path d="M34.6201 21.2852H30.8794V23.1555L34.6201 21.2852Z" fill="#FFCC00"/>
<path d="M31.0623 18.6973L32.2182 22.2549L30.4394 22.8329L31.0623 18.6973Z" fill="#FFCC00"/>
<path d="M31.0623 18.6973L29.9063 22.2549L31.6851 22.8329L31.0623 18.6973Z" fill="#FFCC00"/>
<path d="M34.6204 43.7305H30.8796V45.6008L34.6204 43.7305Z" fill="#FFCC00"/>
<path d="M34.6204 43.7305L31.594 45.9292L30.4947 44.4161L34.6204 43.7305Z" fill="#FFCC00"/>
<path d="M33.2617 47.9121L32.1058 44.3545L30.3269 44.9324L33.2617 47.9121Z" fill="#FFCC00"/>
<path d="M33.2617 47.9121L30.2354 45.7134L31.3348 44.2002L33.2617 47.9121Z" fill="#FFCC00"/>
<path d="M28.8643 47.9121L31.8906 45.7134L30.7912 44.2002L28.8643 47.9121Z" fill="#FFCC00"/>
<path d="M28.8643 47.9121L30.0202 44.3545L31.799 44.9324L28.8643 47.9121Z" fill="#FFCC00"/>
<path d="M31.0627 41.1484L32.2187 44.7061L30.4399 45.2841L31.0627 41.1484Z" fill="#FFCC00"/>
<path d="M31.0627 41.1484L29.9068 44.7061L31.6856 45.2841L31.0627 41.1484Z" fill="#FFCC00"/>
<path d="M27.5054 43.7305H31.2461V45.6008L27.5054 43.7305Z" fill="#FFCC00"/>
<path d="M27.5054 43.7305L30.5317 45.9292L31.6311 44.4161L27.5054 43.7305Z" fill="#FFCC00"/>
<path d="M42.8354 51.9453H39.0947V53.8157L42.8354 51.9453Z" fill="#FFCC00"/>
<path d="M42.8354 51.9453L39.8091 54.1441L38.7097 52.6309L42.8354 51.9453Z" fill="#FFCC00"/>
<path d="M41.4768 56.127L40.3209 52.5693L38.542 53.1473L41.4768 56.127Z" fill="#FFCC00"/>
<path d="M41.4768 56.127L38.4505 53.9282L39.5499 52.415L41.4768 56.127Z" fill="#FFCC00"/>
<path d="M37.0793 56.1289L40.1057 53.9302L39.0063 52.417L37.0793 56.1289Z" fill="#FFCC00"/>
<path d="M37.0793 56.1289L38.2353 52.5713L40.0141 53.1492L37.0793 56.1289Z" fill="#FFCC00"/>
<path d="M39.2773 49.3652L40.4333 52.9229L38.6545 53.5009L39.2773 49.3652Z" fill="#FFCC00"/>
<path d="M39.2773 49.3652L38.1214 52.9229L39.9002 53.5009L39.2773 49.3652Z" fill="#FFCC00"/>
<path d="M35.7202 51.9473H39.461V53.8176L35.7202 51.9473Z" fill="#FFCC00"/>
<path d="M35.7202 51.9473L38.7465 54.146L39.8459 52.6329L35.7202 51.9473Z" fill="#FFCC00"/>
<path d="M72.9441 29.9277L74.1 33.4854L72.3212 34.0634L72.9441 29.9277Z" fill="#FFCC00"/>
<path d="M72.9441 29.9277L71.7881 33.4854L73.567 34.0634L72.9441 29.9277Z" fill="#FFCC00"/>
<path d="M69.3867 32.5098H73.1275V34.3801L69.3867 32.5098Z" fill="#FFCC00"/>
<path d="M69.3867 32.5098L72.413 34.7085L73.5124 33.1954L69.3867 32.5098Z" fill="#FFCC00"/>
<path d="M70.7456 36.6934L71.9016 33.1357L73.6804 33.7137L70.7456 36.6934Z" fill="#FFCC00"/>
<path d="M70.7456 36.6934L73.7719 34.4946L72.6726 32.9814L70.7456 36.6934Z" fill="#FFCC00"/>
<path d="M76.502 32.5098H72.7612V34.3801L76.502 32.5098Z" fill="#FFCC00"/>
<path d="M76.502 32.5098L73.4756 34.7085L72.3763 33.1954L76.502 32.5098Z" fill="#FFCC00"/>
<path d="M75.1428 36.6934L73.9869 33.1357L72.208 33.7137L75.1428 36.6934Z" fill="#FFCC00"/>
<path d="M75.1428 36.6934L72.1165 34.4946L73.2159 32.9814L75.1428 36.6934Z" fill="#FFCC00"/>
<path d="M63.9214 17.2578L60.8951 15.0591L61.9944 13.5459L63.9214 17.2578Z" fill="#FFCC00"/>
<path d="M63.9214 17.2578L62.7654 13.7002L60.9866 14.2781L63.9214 17.2578Z" fill="#FFCC00"/>
<path d="M65.2795 13.0742L62.2532 15.273L61.1538 13.7598L65.2795 13.0742Z" fill="#FFCC00"/>
<path d="M65.2795 13.0742H61.5388V14.9446L65.2795 13.0742Z" fill="#FFCC00"/>
<path d="M61.7219 10.4883L62.8779 14.0459L61.099 14.6239L61.7219 10.4883Z" fill="#FFCC00"/>
<path d="M61.7219 10.4883L60.566 14.0459L62.3448 14.6239L61.7219 10.4883Z" fill="#FFCC00"/>
<path d="M59.5234 17.2539L62.5498 15.0552L61.4504 13.542L59.5234 17.2539Z" fill="#FFCC00"/>
<path d="M59.5234 17.2539L60.6794 13.6963L62.4582 14.2742L59.5234 17.2539Z" fill="#FFCC00"/>
<path d="M58.1646 13.0723L61.1909 15.271L62.2903 13.7579L58.1646 13.0723Z" fill="#FFCC00"/>
<path d="M58.1646 13.0723H61.9053V14.9426L58.1646 13.0723Z" fill="#FFCC00"/>
<path d="M67.7385 25.4707L68.8945 21.913L70.6733 22.491L67.7385 25.4707Z" fill="#FFCC00"/>
<path d="M67.7385 25.4707L70.7648 23.272L69.6655 21.7588L67.7385 25.4707Z" fill="#FFCC00"/>
<path d="M72.1362 25.4707L69.1099 23.272L70.2093 21.7588L72.1362 25.4707Z" fill="#FFCC00"/>
<path d="M72.1362 25.4707L70.9803 21.913L69.2015 22.491L72.1362 25.4707Z" fill="#FFCC00"/>
<path d="M73.4949 21.2891L70.4685 23.4878L69.3692 21.9747L73.4949 21.2891Z" fill="#FFCC00"/>
<path d="M73.4949 21.2891H69.7541V23.1594L73.4949 21.2891Z" fill="#FFCC00"/>
<path d="M66.3794 21.2871L69.4057 23.4859L70.5051 21.9727L66.3794 21.2871Z" fill="#FFCC00"/>
<path d="M66.3794 21.2871H70.1201V23.1575L66.3794 21.2871Z" fill="#FFCC00"/>
<path d="M69.9373 18.7012L68.7813 22.2588L70.5601 22.8368L69.9373 18.7012Z" fill="#FFCC00"/>
<path d="M69.9373 18.7012L71.0932 22.2588L69.3144 22.8368L69.9373 18.7012Z" fill="#FFCC00"/>
<path d="M66.3794 43.7305H70.1201V45.6008L66.3794 43.7305Z" fill="#FFCC00"/>
<path d="M66.3794 43.7305L69.4057 45.9292L70.5051 44.4161L66.3794 43.7305Z" fill="#FFCC00"/>
<path d="M67.7383 47.9121L68.8942 44.3545L70.6731 44.9324L67.7383 47.9121Z" fill="#FFCC00"/>
<path d="M67.7383 47.9121L70.7646 45.7134L69.6652 44.2002L67.7383 47.9121Z" fill="#FFCC00"/>
<path d="M72.1357 47.9121L69.1094 45.7134L70.2088 44.2002L72.1357 47.9121Z" fill="#FFCC00"/>
<path d="M72.1357 47.9121L70.9798 44.3545L69.201 44.9324L72.1357 47.9121Z" fill="#FFCC00"/>
<path d="M69.9368 41.1465L68.7808 44.7041L70.5596 45.2821L69.9368 41.1465Z" fill="#FFCC00"/>
<path d="M69.9368 41.1465L71.0927 44.7041L69.3139 45.2821L69.9368 41.1465Z" fill="#FFCC00"/>
<path d="M73.4941 43.7305H69.7534V45.6008L73.4941 43.7305Z" fill="#FFCC00"/>
<path d="M73.4941 43.7305L70.4678 45.9292L69.3684 44.4161L73.4941 43.7305Z" fill="#FFCC00"/>
<path d="M58.1641 51.9473H61.9048V53.8176L58.1641 51.9473Z" fill="#FFCC00"/>
<path d="M58.1641 51.9473L61.1904 54.146L62.2898 52.6329L58.1641 51.9473Z" fill="#FFCC00"/>
<path d="M59.5234 56.1289L60.6794 52.5713L62.4582 53.1492L59.5234 56.1289Z" fill="#FFCC00"/>
<path d="M59.5234 56.1289L62.5498 53.9302L61.4504 52.417L59.5234 56.1289Z" fill="#FFCC00"/>
<path d="M63.9211 56.1309L60.8948 53.9321L61.9942 52.4189L63.9211 56.1309Z" fill="#FFCC00"/>
<path d="M63.9211 56.1309L62.7652 52.5732L60.9864 53.1512L63.9211 56.1309Z" fill="#FFCC00"/>
<path d="M61.7219 49.3652L60.566 52.9229L62.3448 53.5009L61.7219 49.3652Z" fill="#FFCC00"/>
<path d="M61.7219 49.3652L62.8779 52.9229L61.099 53.5009L61.7219 49.3652Z" fill="#FFCC00"/>
<path d="M65.2795 51.9492H61.5388V53.8196L65.2795 51.9492Z" fill="#FFCC00"/>
<path d="M65.2795 51.9492L62.2532 54.148L61.1538 52.6348L65.2795 51.9492Z" fill="#FFCC00"/>
</svg>
