<svg width="35" height="36" viewBox="0 0 35 36" fill="none" xmlns="http://www.w3.org/2000/svg">
<g id=" Outline / message-circle">
<path id="Union" fill-rule="evenodd" clip-rule="evenodd" d="M10.2087 16.9596C10.2087 16.1546 10.862 15.5013 11.667 15.5013C12.472 15.5013 13.1254 16.1546 13.1254 16.9596C13.1254 17.7646 12.472 18.4179 11.667 18.4179C10.862 18.4179 10.2087 17.7646 10.2087 16.9596ZM17.5004 15.5013C16.6954 15.5013 16.042 16.1546 16.042 16.9596C16.042 17.7646 16.6954 18.4179 17.5004 18.4179C18.3054 18.4179 18.9587 17.7646 18.9587 16.9596C18.9587 16.1546 18.3054 15.5013 17.5004 15.5013ZM23.3337 15.5013C22.5287 15.5013 21.8754 16.1546 21.8754 16.9596C21.8754 17.7646 22.5287 18.4179 23.3337 18.4179C24.1387 18.4179 24.792 17.7646 24.792 16.9596C24.792 16.1546 24.1387 15.5013 23.3337 15.5013ZM29.0189 18.848C28.2795 23.5934 24.4543 27.5294 19.7162 28.4176C17.428 28.8492 15.0976 28.6028 12.983 27.7074C12.3837 27.4536 11.7639 27.3253 11.1557 27.3253C10.8787 27.3253 10.6045 27.3515 10.3347 27.4055L6.23387 28.2251L7.05491 24.1169C7.227 23.2638 7.122 22.3509 6.75304 21.4774C5.85762 19.3628 5.61262 17.0338 6.04283 14.7442C6.93096 10.0061 10.8655 6.1809 15.6124 5.44153C19.3895 4.85382 23.0835 6.04382 25.7493 8.70965C28.4166 11.3769 29.608 15.0724 29.0189 18.848ZM27.8128 6.64757C24.4805 3.31674 19.8722 1.83069 15.1632 2.5584C9.21762 3.4859 4.28846 8.27507 3.17575 14.2061C2.63908 17.0615 2.94825 19.9694 4.06679 22.6134C4.20825 22.9503 4.252 23.2638 4.19658 23.5453L2.94533 29.7986C2.84908 30.2769 2.99929 30.7713 3.34491 31.1155C3.62054 31.3926 3.99242 31.5428 4.37596 31.5428C4.47075 31.5428 4.56554 31.534 4.66179 31.5151L10.9078 30.2653C11.2666 30.1967 11.6137 30.2974 11.8455 30.3936C14.4924 31.5122 17.4003 31.8199 20.2528 31.2847C26.1853 30.1719 30.9745 25.2428 31.902 19.2972C32.6341 14.5911 31.1451 9.97986 27.8128 6.64757Z" fill="#006FBB"/>
</g>
</svg>
