<svg width="35" height="35" viewBox="0 0 35 35" fill="none" xmlns="http://www.w3.org/2000/svg">
<path fill-rule="evenodd" clip-rule="evenodd" d="M18.9582 7.29199C18.9582 8.09845 18.3048 8.75033 17.4998 8.75033C16.6948 8.75033 16.0415 8.09845 16.0415 7.29199V4.37533C16.0415 3.56887 16.6948 2.91699 17.4998 2.91699C18.3048 2.91699 18.9582 3.56887 18.9582 4.37533V7.29199ZM18.9582 22.5459C18.9582 22.0252 19.2367 21.5425 19.6888 21.2815C21.0378 20.5071 21.8748 19.0575 21.8748 17.5C21.8748 15.0879 19.9119 13.125 17.4998 13.125C15.0878 13.125 13.1248 15.0879 13.1248 17.5C13.1248 19.0575 13.9619 20.5071 15.3109 21.2815C15.763 21.5425 16.0415 22.0252 16.0415 22.5459V29.1667H18.9582V22.5459ZM10.2082 17.5C10.2082 13.4794 13.4792 10.2084 17.4998 10.2084C21.5205 10.2084 24.7915 13.4794 24.7915 17.5C24.7915 19.8027 23.6919 21.9655 21.8748 23.3275V29.1667C21.8748 30.7752 20.5667 32.0834 18.9582 32.0834H16.0415C14.433 32.0834 13.1248 30.7752 13.1248 29.1667V23.3275C11.3063 21.9655 10.2082 19.8027 10.2082 17.5ZM30.6248 16.042H27.7082C26.9017 16.042 26.2498 16.6939 26.2498 17.5003C26.2498 18.3068 26.9017 18.9587 27.7082 18.9587H30.6248C31.4313 18.9587 32.0832 18.3068 32.0832 17.5003C32.0832 16.6939 31.4313 16.042 30.6248 16.042ZM4.37484 16.042H7.2915C8.0965 16.042 8.74984 16.6939 8.74984 17.5003C8.74984 18.3068 8.0965 18.9587 7.2915 18.9587H4.37484C3.56984 18.9587 2.9165 18.3068 2.9165 17.5003C2.9165 16.6939 3.56984 16.042 4.37484 16.042ZM11.1702 9.35991L9.07169 7.33283C8.49273 6.77428 7.57107 6.79178 7.00961 7.37074C6.44961 7.94824 6.46565 8.87283 7.04461 9.43283L9.14315 11.4585C9.42752 11.7326 9.79211 11.8682 10.1567 11.8682C10.5388 11.8682 10.9194 11.718 11.2052 11.422C11.7652 10.8445 11.7492 9.91991 11.1702 9.35991ZM25.9281 7.3353C26.5056 6.77676 27.4331 6.7928 27.9888 7.3703C28.5488 7.9478 28.5327 8.87239 27.9538 9.43093L25.8552 11.458C25.5738 11.7307 25.2077 11.8678 24.8431 11.8678C24.461 11.8678 24.079 11.7176 23.7946 11.4216C23.2346 10.8441 23.2506 9.91947 23.8296 9.36093L25.9281 7.3353Z" fill="#F8F043"/>
</svg>
