<svg width="338" height="98" viewBox="0 0 338 98" fill="none" xmlns="http://www.w3.org/2000/svg">
<path d="M142.031 79.8703H121.965V49.3291H142.031V52.9392H126.015V61.3083H142.031V64.9181H126.015V76.2615H142.031V79.8703Z" fill="#2765B2"/>
<path d="M160.83 61.1711H160.625C160.053 61.0343 159.497 60.9355 158.959 60.8738C158.42 60.812 157.782 60.7811 157.046 60.7811C155.86 60.7811 154.714 61.0448 153.61 61.5709C152.505 62.0978 151.441 62.7779 150.419 63.6122V79.877H146.573V56.9654H150.419V60.3499C151.946 59.1195 153.292 58.2475 154.458 57.7346C155.624 57.2221 156.813 56.9653 158.028 56.9653C158.696 56.9653 159.18 56.9829 159.48 57.017C159.78 57.0508 160.23 57.1162 160.83 57.2113L160.83 61.1711Z" fill="#2765B2"/>
<path d="M177.68 74.2343V67.8554C176.507 67.9231 175.126 68.0267 173.538 68.1624C171.949 68.2993 170.691 68.4978 169.764 68.7575C168.659 69.0724 167.766 69.5613 167.084 70.2242C166.402 70.8877 166.062 71.8002 166.062 72.9627C166.062 74.2751 166.457 75.2635 167.248 75.9266C168.039 76.5898 169.246 76.9209 170.868 76.9209C172.219 76.9209 173.452 76.658 174.571 76.132C175.688 75.605 176.725 74.9728 177.68 74.2343ZM181.505 79.8746H177.68V77.4342C177.339 77.6662 176.879 77.9913 176.299 78.4078C175.719 78.8252 175.157 79.157 174.612 79.403C173.971 79.7173 173.234 79.9805 172.403 80.1925C171.571 80.4047 170.596 80.5106 169.478 80.5106C167.418 80.5106 165.673 79.8269 164.241 78.4596C162.809 77.0919 162.093 75.3486 162.093 73.2291C162.093 71.4923 162.465 70.0873 163.208 69.0142C163.951 67.9407 165.011 67.0963 166.389 66.4811C167.78 65.8652 169.449 65.4486 171.4 65.2295C173.35 65.0108 175.443 64.8468 177.679 64.7372V64.1424C177.679 63.268 177.526 62.5425 177.219 61.9679C176.912 61.3943 176.472 60.9425 175.899 60.6142C175.355 60.2999 174.7 60.0881 173.936 59.9785C173.172 59.8693 172.374 59.8144 171.543 59.8144C170.534 59.8144 169.409 59.9476 168.168 60.2145C166.927 60.4809 165.645 60.8674 164.323 61.373H164.118V57.4555C164.868 57.2508 165.952 57.0249 167.37 56.7785C168.788 56.5325 170.186 56.4097 171.563 56.4097C173.172 56.4097 174.573 56.5429 175.766 56.8094C176.96 57.0758 177.993 57.5312 178.865 58.1737C179.725 58.8029 180.379 59.6168 180.829 60.6141C181.279 61.6128 181.504 62.85 181.504 64.3267L181.505 79.8746Z" fill="#2765B2"/>
<path d="M203.777 73.2682C203.777 75.3606 202.914 77.0773 201.19 78.4168C199.464 79.7571 197.109 80.4272 194.122 80.4272C192.431 80.4272 190.881 80.2251 189.469 79.8218C188.058 79.4184 186.875 78.9782 185.92 78.4991V74.171H186.125C187.338 75.0872 188.688 75.8152 190.175 76.3553C191.661 76.8961 193.086 77.1655 194.45 77.1655C196.141 77.1655 197.463 76.8926 198.417 76.3452C199.372 75.7982 199.85 74.9371 199.85 73.7605C199.85 72.8588 199.591 72.1746 199.072 71.7095C198.554 71.2451 197.559 70.8482 196.086 70.52C195.541 70.3972 194.829 70.2535 193.949 70.0894C193.069 69.9253 192.268 69.7475 191.545 69.556C189.541 69.0223 188.119 68.2401 187.28 67.2075C186.442 66.175 186.023 64.9069 186.023 63.4021C186.023 62.4586 186.217 61.5701 186.605 60.7363C186.994 59.902 187.584 59.1564 188.375 58.5006C189.138 57.8573 190.11 57.3481 191.29 56.9721C192.469 56.596 193.789 56.4082 195.248 56.4082C196.611 56.4082 197.992 56.5759 199.389 56.9103C200.787 57.2457 201.95 57.6526 202.877 58.1311V62.2541H202.673C201.691 61.5297 200.498 60.9173 199.093 60.4184C197.688 59.9188 196.312 59.6692 194.962 59.6692C193.557 59.6692 192.371 59.9393 191.403 60.4795C190.434 61.0203 189.95 61.8234 189.95 62.8897C189.95 63.8331 190.243 64.5443 190.83 65.0226C191.403 65.5017 192.329 65.8917 193.612 66.1921C194.32 66.3561 195.115 66.5203 195.994 66.6844C196.874 66.8485 197.607 66.9993 198.194 67.1355C199.979 67.5461 201.357 68.2499 202.325 69.2483C203.293 70.2603 203.777 71.6004 203.777 73.2682Z" fill="#2765B2"/>
<path d="M241.201 79.8706H237.355V66.8256C237.355 65.8409 237.311 64.8905 237.223 63.9743C237.134 63.0582 236.947 62.3266 236.66 61.7797C236.346 61.1918 235.896 60.7479 235.31 60.4462C234.724 60.146 233.878 59.9951 232.774 59.9951C231.697 59.9951 230.62 60.2652 229.542 60.8054C228.465 61.3462 227.388 62.0329 226.31 62.8667C226.351 63.1819 226.385 63.5475 226.413 63.9639C226.44 64.3813 226.454 64.795 226.454 65.2056V79.8708H222.608V66.8258C222.608 65.8137 222.564 64.8534 222.475 63.9437C222.386 63.0348 222.199 62.3068 221.913 61.7594C221.599 61.1715 221.149 60.7305 220.563 60.4364C219.977 60.1426 219.131 59.9953 218.027 59.9953C216.977 59.9953 215.923 60.2557 214.866 60.7747C213.809 61.2944 212.756 61.9581 211.706 62.7647V79.8711H207.861V56.9594H211.706V59.5029C212.906 58.5055 214.102 57.7254 215.296 57.1649C216.489 56.6046 217.761 56.3238 219.111 56.3238C220.665 56.3238 221.984 56.652 223.069 57.3086C224.153 57.9647 224.961 58.8744 225.492 60.0366C227.047 58.7235 228.465 57.7772 229.747 57.1957C231.029 56.6143 232.399 56.3237 233.858 56.3237C236.367 56.3237 238.218 57.0862 239.411 58.6104C240.605 60.1357 241.201 62.2651 241.201 65.0003L241.201 79.8706Z" fill="#2765B2"/>
<path d="M265.425 79.8707H261.58V77.3272C260.284 78.3526 259.044 79.1399 257.858 79.6861C256.671 80.2334 255.362 80.5067 253.93 80.5067C251.53 80.5067 249.661 79.7716 248.326 78.3017C246.989 76.832 246.322 74.675 246.322 71.8305V56.959H250.167V70.004C250.167 71.1664 250.221 72.1612 250.33 72.989C250.44 73.8157 250.671 74.5235 251.026 75.1114C251.394 75.7134 251.871 76.1508 252.457 76.4244C253.044 76.6981 253.896 76.8341 255.014 76.8341C256.01 76.8341 257.097 76.5746 258.276 76.0548C259.456 75.5356 260.558 74.8722 261.58 74.0654V56.958H265.425L265.425 79.8707Z" fill="#2765B2"/>
<path d="M287.884 73.2682C287.884 75.3606 287.022 77.0773 285.297 78.4168C283.572 79.7571 281.216 80.4272 278.23 80.4272C276.539 80.4272 274.988 80.2251 273.577 79.8218C272.165 79.4184 270.982 78.9782 270.027 78.4991V74.171H270.233C271.446 75.0872 272.796 75.8152 274.282 76.3553C275.768 76.8961 277.193 77.1655 278.557 77.1655C280.248 77.1655 281.571 76.8926 282.525 76.3452C283.48 75.7982 283.957 74.9371 283.957 73.7605C283.957 72.8588 283.698 72.1746 283.18 71.7095C282.662 71.2451 281.666 70.8482 280.193 70.52C279.648 70.3972 278.935 70.2535 278.056 70.0894C277.176 69.9253 276.375 69.7475 275.653 69.556C273.648 69.0223 272.227 68.2401 271.388 67.2075C270.549 66.1749 270.13 64.9069 270.13 63.4021C270.13 62.4586 270.324 61.5701 270.713 60.7363C271.102 59.902 271.691 59.1564 272.482 58.5006C273.246 57.8573 274.218 57.3481 275.397 56.9721C276.576 56.596 277.896 56.4082 279.354 56.4082C280.719 56.4082 282.098 56.5759 283.497 56.9103C284.895 57.2457 286.057 57.6526 286.985 58.1311V62.2541H286.78C285.798 61.5297 284.605 60.9173 283.201 60.4184C281.796 59.9188 280.419 59.6692 279.068 59.6692C277.664 59.6692 276.478 59.9393 275.51 60.4795C274.542 61.0203 274.057 61.8234 274.057 62.8897C274.057 63.8331 274.351 64.5443 274.937 65.0226C275.51 65.5017 276.437 65.8917 277.719 66.1921C278.428 66.3561 279.222 66.5203 280.102 66.6844C280.981 66.8485 281.714 66.9993 282.301 67.1355C284.087 67.5461 285.464 68.2499 286.432 69.2483C287.4 70.2603 287.884 71.6004 287.884 73.2682Z" fill="#2765B2"/>
<path d="M320.089 68.1428H308.941V79.3222H305.546V68.1428H294.398V64.8605H305.546V53.6821H308.941V64.8605H320.089V68.1428Z" fill="#2765B2"/>
<path d="M109.282 18.7988H17.9106V79.8832H109.282V18.7988Z" fill="#2765B2"/>
<path d="M63.5962 25.5859L62.5504 28.8134L64.1597 29.3378L63.5962 25.5859Z" fill="#FFCC00"/>
<path d="M63.5962 25.5859L64.6419 28.8134L63.0327 29.3378L63.5962 25.5859Z" fill="#FFCC00"/>
<path d="M66.8149 27.9312L63.4319 27.9334L63.4308 29.6279L66.8149 27.9312Z" fill="#FFCC00"/>
<path d="M66.8149 27.9297L64.0761 29.9255L63.0826 28.5539L66.8149 27.9297Z" fill="#FFCC00"/>
<path d="M65.585 31.7246L64.5401 28.4978L62.93 29.0227L65.585 31.7246Z" fill="#FFCC00"/>
<path d="M65.5845 31.7256L62.8473 29.7316L63.8425 28.3582L65.5845 31.7256Z" fill="#FFCC00"/>
<path d="M60.3774 27.9312L63.7604 27.9334L63.7616 29.6279L60.3774 27.9312Z" fill="#FFCC00"/>
<path d="M60.3774 27.9297L63.1163 29.9255L64.1098 28.5539L60.3774 27.9297Z" fill="#FFCC00"/>
<path d="M61.6074 31.7246L62.6523 28.4978L64.2624 29.0227L61.6074 31.7246Z" fill="#FFCC00"/>
<path d="M61.6079 31.7256L64.3451 29.7316L63.3499 28.3582L61.6079 31.7256Z" fill="#FFCC00"/>
<path d="M63.5962 66.3091L62.5504 69.5366L64.1597 70.0609L63.5962 66.3091Z" fill="#FFCC00"/>
<path d="M63.5962 66.3091L64.6419 69.5366L63.0327 70.0609L63.5962 66.3091Z" fill="#FFCC00"/>
<path d="M66.8149 68.6543L63.4319 68.6565L63.4308 70.3511L66.8149 68.6543Z" fill="#FFCC00"/>
<path d="M66.8149 68.6528L64.0761 70.6487L63.0826 69.2771L66.8149 68.6528Z" fill="#FFCC00"/>
<path d="M65.585 72.4478L64.5401 69.2209L62.93 69.7459L65.585 72.4478Z" fill="#FFCC00"/>
<path d="M65.5845 72.4487L62.8473 70.4547L63.8425 69.0813L65.5845 72.4487Z" fill="#FFCC00"/>
<path d="M60.3774 68.6543L63.7604 68.6565L63.7616 70.3511L60.3774 68.6543Z" fill="#FFCC00"/>
<path d="M60.3774 68.6528L63.1163 70.6487L64.1098 69.2771L60.3774 68.6528Z" fill="#FFCC00"/>
<path d="M61.6074 72.4478L62.6523 69.2209L64.2624 69.7459L61.6074 72.4478Z" fill="#FFCC00"/>
<path d="M61.6079 72.4487L64.3451 70.4547L63.3499 69.0813L61.6079 72.4487Z" fill="#FFCC00"/>
<path d="M43.2915 45.9473L42.2458 49.1747L43.855 49.6991L43.2915 45.9473Z" fill="#FFCC00"/>
<path d="M43.2915 45.9473L44.3373 49.1747L42.728 49.6991L43.2915 45.9473Z" fill="#FFCC00"/>
<path d="M46.5103 48.2925L43.1273 48.2947L43.1261 49.9893L46.5103 48.2925Z" fill="#FFCC00"/>
<path d="M46.5103 48.291L43.7714 50.2868L42.7779 48.9153L46.5103 48.291Z" fill="#FFCC00"/>
<path d="M45.2803 52.0859L44.2354 48.8591L42.6253 49.3841L45.2803 52.0859Z" fill="#FFCC00"/>
<path d="M45.2798 52.0869L42.5426 50.0929L43.5378 48.7195L45.2798 52.0869Z" fill="#FFCC00"/>
<path d="M40.0728 48.2925L43.4557 48.2947L43.4569 49.9893L40.0728 48.2925Z" fill="#FFCC00"/>
<path d="M40.0728 48.291L42.8116 50.2868L43.8051 48.9153L40.0728 48.291Z" fill="#FFCC00"/>
<path d="M41.3027 52.0859L42.3476 48.8591L43.9577 49.3841L41.3027 52.0859Z" fill="#FFCC00"/>
<path d="M41.3032 52.0869L44.0404 50.0929L43.0452 48.7195L41.3032 52.0869Z" fill="#FFCC00"/>
<path d="M51.4551 34.4526L54.1922 32.4587L53.197 31.0852L51.4551 34.4526Z" fill="#FFCC00"/>
<path d="M51.4546 34.4521L52.4994 31.2253L54.1096 31.7503L51.4546 34.4521Z" fill="#FFCC00"/>
<path d="M50.2251 30.6577L52.9635 32.653L53.9575 31.2809L50.2251 30.6577Z" fill="#FFCC00"/>
<path d="M50.2251 30.6587L53.6086 30.6599L53.6092 32.3555L50.2251 30.6587Z" fill="#FFCC00"/>
<path d="M53.4429 28.3135L52.3981 31.5403L54.0082 32.0653L53.4429 28.3135Z" fill="#FFCC00"/>
<path d="M53.4429 28.3135L54.4895 31.5416L52.8812 32.0653L53.4429 28.3135Z" fill="#FFCC00"/>
<path d="M55.4336 34.4531L52.6952 32.4578L53.6892 31.0857L55.4336 34.4531Z" fill="#FFCC00"/>
<path d="M55.4331 34.4536L54.3865 31.2255L52.7781 31.7493L55.4331 34.4536Z" fill="#FFCC00"/>
<path d="M56.6621 30.6592L53.9247 32.6534L52.9297 31.2801L56.6621 30.6592Z" fill="#FFCC00"/>
<path d="M56.6616 30.6597L53.278 30.6587L53.2785 32.3545L56.6616 30.6597Z" fill="#FFCC00"/>
<path d="M48.001 41.9048L46.9562 38.678L45.346 39.203L48.001 41.9048Z" fill="#FFCC00"/>
<path d="M48 41.9053L45.2629 39.9113L46.2581 38.5378L48 41.9053Z" fill="#FFCC00"/>
<path d="M44.022 41.9053L46.7604 39.9099L45.7664 38.5378L44.022 41.9053Z" fill="#FFCC00"/>
<path d="M44.0225 41.9058L45.069 38.6777L46.6775 39.2014L44.0225 41.9058Z" fill="#FFCC00"/>
<path d="M42.7935 38.1113L45.5308 40.1055L46.5258 38.7323L42.7935 38.1113Z" fill="#FFCC00"/>
<path d="M42.7939 38.1118L46.1776 38.1108L46.1771 39.8066L42.7939 38.1118Z" fill="#FFCC00"/>
<path d="M49.2305 38.1104L46.4921 40.1057L45.4981 38.7335L49.2305 38.1104Z" fill="#FFCC00"/>
<path d="M49.2305 38.1113L45.847 38.1125L45.8464 39.8081L49.2305 38.1113Z" fill="#FFCC00"/>
<path d="M46.0127 35.7661L47.0575 38.9929L45.4473 39.5179L46.0127 35.7661Z" fill="#FFCC00"/>
<path d="M46.0127 35.7661L44.966 38.9943L46.5743 39.5179L46.0127 35.7661Z" fill="#FFCC00"/>
<path d="M49.2305 58.4727L45.8479 58.4758L45.8464 60.1694L49.2305 58.4727Z" fill="#FFCC00"/>
<path d="M49.2305 58.4712L46.4912 60.4675L45.4981 59.0964L49.2305 58.4712Z" fill="#FFCC00"/>
<path d="M48.001 62.2651L46.9576 59.0393L45.346 59.5654L48.001 62.2651Z" fill="#FFCC00"/>
<path d="M47.9995 62.2671L45.2634 60.2743L46.2597 58.8997L47.9995 62.2671Z" fill="#FFCC00"/>
<path d="M44.0215 62.2671L46.7603 60.2712L45.7668 58.8997L44.0215 62.2671Z" fill="#FFCC00"/>
<path d="M44.0229 62.2681L45.0702 59.0395L46.6779 59.5628L44.0229 62.2681Z" fill="#FFCC00"/>
<path d="M46.0142 56.1274L47.0579 59.3535L45.4466 59.8793L46.0142 56.1274Z" fill="#FFCC00"/>
<path d="M46.0142 56.1274L44.9664 59.3564L46.5736 59.8793L46.0142 56.1274Z" fill="#FFCC00"/>
<path d="M42.7944 58.4736L46.1779 58.4724L46.1773 60.1679L42.7944 58.4736Z" fill="#FFCC00"/>
<path d="M42.7939 58.4731L45.5312 60.4672L46.5263 59.0938L42.7939 58.4731Z" fill="#FFCC00"/>
<path d="M56.6626 65.9253L53.2801 65.9285L53.2785 67.6221L56.6626 65.9253Z" fill="#FFCC00"/>
<path d="M56.6626 65.9238L53.9234 67.9201L52.9302 66.549L56.6626 65.9238Z" fill="#FFCC00"/>
<path d="M55.4331 69.7178L54.3897 66.492L52.7781 67.018L55.4331 69.7178Z" fill="#FFCC00"/>
<path d="M55.4316 69.7197L52.6955 67.7269L53.6918 66.3523L55.4316 69.7197Z" fill="#FFCC00"/>
<path d="M51.4536 69.7197L54.1925 67.7239L53.1989 66.3523L51.4536 69.7197Z" fill="#FFCC00"/>
<path d="M51.4551 69.7207L52.5023 66.4922L54.1101 67.0155L51.4551 69.7207Z" fill="#FFCC00"/>
<path d="M53.4463 63.5801L54.49 66.8061L52.8788 67.3319L53.4463 63.5801Z" fill="#FFCC00"/>
<path d="M53.4463 63.5801L52.3985 66.809L54.0058 67.3319L53.4463 63.5801Z" fill="#FFCC00"/>
<path d="M50.2266 65.9263L53.6101 65.925L53.6094 67.6206L50.2266 65.9263Z" fill="#FFCC00"/>
<path d="M50.2261 65.9258L52.9633 67.9198L53.9585 66.5465L50.2261 65.9258Z" fill="#FFCC00"/>
<path d="M83.9009 45.9473L84.9466 49.1747L83.3374 49.6991L83.9009 45.9473Z" fill="#FFCC00"/>
<path d="M83.9009 45.9473L82.8551 49.1747L84.4644 49.6991L83.9009 45.9473Z" fill="#FFCC00"/>
<path d="M80.6821 48.2925L84.0651 48.2947L84.0662 49.9893L80.6821 48.2925Z" fill="#FFCC00"/>
<path d="M80.6821 48.291L83.421 50.2868L84.4145 48.9153L80.6821 48.291Z" fill="#FFCC00"/>
<path d="M81.9121 52.0859L82.957 48.8591L84.5671 49.3841L81.9121 52.0859Z" fill="#FFCC00"/>
<path d="M81.9126 52.0869L84.6498 50.0929L83.6546 48.7195L81.9126 52.0869Z" fill="#FFCC00"/>
<path d="M87.1196 48.2925L83.7366 48.2947L83.7355 49.9893L87.1196 48.2925Z" fill="#FFCC00"/>
<path d="M87.1196 48.291L84.3808 50.2868L83.3873 48.9153L87.1196 48.291Z" fill="#FFCC00"/>
<path d="M85.8896 52.0859L84.8448 48.8591L83.2347 49.3841L85.8896 52.0859Z" fill="#FFCC00"/>
<path d="M85.8892 52.0869L83.152 50.0929L84.1472 48.7195L85.8892 52.0869Z" fill="#FFCC00"/>
<path d="M75.7373 34.4526L73.0002 32.4587L73.9954 31.0852L75.7373 34.4526Z" fill="#FFCC00"/>
<path d="M75.7378 34.4521L74.693 31.2253L73.0828 31.7503L75.7378 34.4521Z" fill="#FFCC00"/>
<path d="M76.9673 30.6577L74.2289 32.653L73.2349 31.2809L76.9673 30.6577Z" fill="#FFCC00"/>
<path d="M76.9673 30.6587L73.5838 30.6599L73.5832 32.3555L76.9673 30.6587Z" fill="#FFCC00"/>
<path d="M73.7495 28.3135L74.7943 31.5403L73.1842 32.0653L73.7495 28.3135Z" fill="#FFCC00"/>
<path d="M73.7495 28.3135L72.7028 31.5416L74.3112 32.0653L73.7495 28.3135Z" fill="#FFCC00"/>
<path d="M71.7588 34.4531L74.4972 32.4578L73.5032 31.0857L71.7588 34.4531Z" fill="#FFCC00"/>
<path d="M71.7593 34.4536L72.8059 31.2255L74.4143 31.7493L71.7593 34.4536Z" fill="#FFCC00"/>
<path d="M70.5303 30.6592L73.2676 32.6534L74.2626 31.2801L70.5303 30.6592Z" fill="#FFCC00"/>
<path d="M70.5308 30.6597L73.9144 30.6587L73.9139 32.3545L70.5308 30.6597Z" fill="#FFCC00"/>
<path d="M79.1914 41.9048L80.2362 38.678L81.8464 39.203L79.1914 41.9048Z" fill="#FFCC00"/>
<path d="M79.1924 41.9053L81.9295 39.9113L80.9343 38.5378L79.1924 41.9053Z" fill="#FFCC00"/>
<path d="M83.1704 41.9053L80.432 39.9099L81.426 38.5378L83.1704 41.9053Z" fill="#FFCC00"/>
<path d="M83.1699 41.9058L82.1233 38.6777L80.5149 39.2014L83.1699 41.9058Z" fill="#FFCC00"/>
<path d="M84.3989 38.1113L81.6616 40.1055L80.6665 38.7323L84.3989 38.1113Z" fill="#FFCC00"/>
<path d="M84.3984 38.1118L81.0148 38.1108L81.0153 39.8066L84.3984 38.1118Z" fill="#FFCC00"/>
<path d="M77.9619 38.1104L80.7003 40.1057L81.6943 38.7335L77.9619 38.1104Z" fill="#FFCC00"/>
<path d="M77.9619 38.1113L81.3454 38.1125L81.346 39.8081L77.9619 38.1113Z" fill="#FFCC00"/>
<path d="M81.1797 35.7661L80.1349 38.9929L81.745 39.5179L81.1797 35.7661Z" fill="#FFCC00"/>
<path d="M81.1797 35.7661L82.2264 38.9943L80.618 39.5179L81.1797 35.7661Z" fill="#FFCC00"/>
<path d="M77.9619 58.4727L81.3444 58.4758L81.346 60.1694L77.9619 58.4727Z" fill="#FFCC00"/>
<path d="M77.9619 58.4712L80.7012 60.4675L81.6943 59.0964L77.9619 58.4712Z" fill="#FFCC00"/>
<path d="M79.1914 62.2651L80.2348 59.0393L81.8464 59.5654L79.1914 62.2651Z" fill="#FFCC00"/>
<path d="M79.1929 62.2671L81.929 60.2743L80.9327 58.8997L79.1929 62.2671Z" fill="#FFCC00"/>
<path d="M83.1709 62.2671L80.432 60.2712L81.4256 58.8997L83.1709 62.2671Z" fill="#FFCC00"/>
<path d="M83.1694 62.2681L82.1222 59.0395L80.5144 59.5628L83.1694 62.2681Z" fill="#FFCC00"/>
<path d="M81.1782 56.1274L80.1345 59.3535L81.7457 59.8793L81.1782 56.1274Z" fill="#FFCC00"/>
<path d="M81.1782 56.1274L82.226 59.3564L80.6188 59.8793L81.1782 56.1274Z" fill="#FFCC00"/>
<path d="M84.3979 58.4736L81.0144 58.4724L81.0151 60.1679L84.3979 58.4736Z" fill="#FFCC00"/>
<path d="M84.3984 58.4731L81.6612 60.4672L80.6661 59.0938L84.3984 58.4731Z" fill="#FFCC00"/>
<path d="M70.5298 65.9253L73.9123 65.9285L73.9139 67.6221L70.5298 65.9253Z" fill="#FFCC00"/>
<path d="M70.5298 65.9238L73.269 67.9201L74.2622 66.549L70.5298 65.9238Z" fill="#FFCC00"/>
<path d="M71.7593 69.7178L72.8026 66.492L74.4143 67.018L71.7593 69.7178Z" fill="#FFCC00"/>
<path d="M71.7607 69.7197L74.4969 67.7269L73.5006 66.3523L71.7607 69.7197Z" fill="#FFCC00"/>
<path d="M75.7388 69.7197L72.9999 67.7239L73.9934 66.3523L75.7388 69.7197Z" fill="#FFCC00"/>
<path d="M75.7373 69.7207L74.6901 66.4922L73.0823 67.0155L75.7373 69.7207Z" fill="#FFCC00"/>
<path d="M73.7461 63.5801L72.7024 66.8061L74.3136 67.3319L73.7461 63.5801Z" fill="#FFCC00"/>
<path d="M73.7461 63.5801L74.7939 66.809L73.1866 67.3319L73.7461 63.5801Z" fill="#FFCC00"/>
<path d="M76.9658 65.9263L73.5823 65.925L73.5829 67.6206L76.9658 65.9263Z" fill="#FFCC00"/>
<path d="M76.9663 65.9258L74.2291 67.9198L73.2339 66.5465L76.9663 65.9258Z" fill="#FFCC00"/>
</svg>
