<svg width="35" height="36" viewBox="0 0 35 36" fill="none" xmlns="http://www.w3.org/2000/svg">
<g id=" Outline / message-circle">
<path id="Union" fill-rule="evenodd" clip-rule="evenodd" d="M10.2087 16.4595C10.2087 15.6545 10.862 15.0011 11.667 15.0011C12.472 15.0011 13.1254 15.6545 13.1254 16.4595C13.1254 17.2645 12.472 17.9178 11.667 17.9178C10.862 17.9178 10.2087 17.2645 10.2087 16.4595ZM17.5004 15.0011C16.6954 15.0011 16.042 15.6545 16.042 16.4595C16.042 17.2645 16.6954 17.9178 17.5004 17.9178C18.3054 17.9178 18.9587 17.2645 18.9587 16.4595C18.9587 15.6545 18.3054 15.0011 17.5004 15.0011ZM23.3337 15.0011C22.5287 15.0011 21.8754 15.6545 21.8754 16.4595C21.8754 17.2645 22.5287 17.9178 23.3337 17.9178C24.1387 17.9178 24.792 17.2645 24.792 16.4595C24.792 15.6545 24.1387 15.0011 23.3337 15.0011ZM29.0189 18.3479C28.2795 23.0933 24.4543 27.0293 19.7162 27.9174C17.428 28.3491 15.0976 28.1027 12.983 27.2072C12.3837 26.9535 11.7639 26.8252 11.1557 26.8252C10.8787 26.8252 10.6045 26.8514 10.3347 26.9054L6.23387 27.7249L7.05491 23.6168C7.227 22.7637 7.122 21.8508 6.75304 20.9772C5.85762 18.8627 5.61262 16.5337 6.04283 14.2441C6.93096 9.50599 10.8655 5.68078 15.6124 4.94141C19.3895 4.3537 23.0835 5.5437 25.7493 8.20953C28.4166 10.8768 29.608 14.5722 29.0189 18.3479ZM27.8128 6.14745C24.4805 2.81661 19.8722 1.33057 15.1632 2.05828C9.21762 2.98578 4.28846 7.77495 3.17575 13.706C2.63908 16.5614 2.94825 19.4693 4.06679 22.1133C4.20825 22.4502 4.252 22.7637 4.19658 23.0452L2.94533 29.2985C2.84908 29.7768 2.99929 30.2712 3.34491 30.6154C3.62054 30.8924 3.99242 31.0427 4.37596 31.0427C4.47075 31.0427 4.56554 31.0339 4.66179 31.0149L10.9078 29.7652C11.2666 29.6966 11.6137 29.7972 11.8455 29.8935C14.4924 31.012 17.4003 31.3197 20.2528 30.7845C26.1853 29.6718 30.9745 24.7427 31.902 18.797C32.6341 14.091 31.1451 9.47974 27.8128 6.14745Z" fill="white"/>
</g>
</svg>
