<svg width="35" height="36" viewBox="0 0 35 36" fill="none" xmlns="http://www.w3.org/2000/svg">
<g id=" Outline / plus-circle">
<path id="Union" fill-rule="evenodd" clip-rule="evenodd" d="M21.8751 16.4609H18.9584V13.5443C18.9584 12.7422 18.3022 12.0859 17.5001 12.0859C16.698 12.0859 16.0417 12.7422 16.0417 13.5443V16.4609H13.1251C12.323 16.4609 11.6667 17.1172 11.6667 17.9193C11.6667 18.7214 12.323 19.3776 13.1251 19.3776H16.0417V22.2943C16.0417 23.0964 16.698 23.7526 17.5001 23.7526C18.3022 23.7526 18.9584 23.0964 18.9584 22.2943V19.3776H21.8751C22.6772 19.3776 23.3334 18.7214 23.3334 17.9193C23.3334 17.1172 22.6772 16.4609 21.8751 16.4609ZM17.5001 29.5859C11.0674 29.5859 5.83341 24.352 5.83341 17.9193C5.83341 11.4866 11.0674 6.2526 17.5001 6.2526C23.9328 6.2526 29.1667 11.4866 29.1667 17.9193C29.1667 24.352 23.9328 29.5859 17.5001 29.5859ZM17.5001 3.33594C9.45883 3.33594 2.91675 9.87802 2.91675 17.9193C2.91675 25.9605 9.45883 32.5026 17.5001 32.5026C25.5413 32.5026 32.0834 25.9605 32.0834 17.9193C32.0834 9.87802 25.5413 3.33594 17.5001 3.33594Z" fill="#006FBB"/>
</g>
</svg>
